<?xml version="1.0" standalone="no"?>
<!DOCTYPE svg PUBLIC "-//W3C//DTD SVG 20010904//EN"
 "http://www.w3.org/TR/2001/REC-SVG-20010904/DTD/svg10.dtd">
<svg version="1.0" xmlns="http://www.w3.org/2000/svg"
 width="351.000000pt" height="351.000000pt" viewBox="0 0 351.000000 351.000000"
 preserveAspectRatio="xMidYMid meet">
<metadata>
Created by potrace 1.14, written by Peter Selinger 2001-2017
</metadata>
<g transform="translate(0.000000,351.000000) scale(0.100000,-0.100000)"
fill="#000000" stroke="none">
<path d="M995 2648 c-49 -10 -97 -20 -105 -22 -37 -9 -132 -59 -177 -93 -87
-66 -142 -132 -191 -230 -25 -48 -69 -196 -78 -257 -3 -22 -9 -68 -14 -101 -4
-33 -7 -136 -5 -230 4 -258 45 -426 141 -577 95 -148 241 -248 418 -284 108
-22 342 -27 451 -9 78 13 191 55 255 94 l65 39 40 -27 c120 -81 248 -114 450
-115 166 -1 238 6 323 30 246 72 402 247 466 524 23 98 28 149 31 335 5 257
-33 444 -121 602 -98 177 -285 298 -509 332 -63 10 -329 7 -380 -3 -111 -23
-222 -67 -282 -112 l-31 -24 -69 40 c-136 79 -231 102 -438 105 -117 2 -170
-2 -240 -17z m305 -383 c91 -47 125 -191 125 -530 -1 -309 -28 -428 -109 -490
-28 -21 -47 -27 -89 -27 -158 -2 -208 123 -209 522 0 282 23 416 85 492 37 46
139 63 197 33z m1036 4 c54 -20 105 -113 119 -220 13 -97 15 -130 15 -289 0
-337 -29 -467 -114 -520 -39 -24 -70 -28 -133 -17 -67 11 -119 85 -140 197
-19 104 -25 509 -9 600 26 147 49 200 105 237 38 25 107 31 157 12z"/>
</g>
</svg>
